<svg width="30" height="31" viewBox="0 0 30 31" fill="none" xmlns="http://www.w3.org/2000/svg">
<g clip-path="url(#clip0_590_346)">
<path d="M23.0456 27.1189H6.95313C6.12432 27.1189 5.32947 26.7896 4.74342 26.2036C4.15737 25.6175 3.82812 24.8227 3.82812 23.9939V7.90137C3.82813 7.07257 4.15737 6.27771 4.74342 5.69166C5.32947 5.10561 6.12432 4.77637 6.95313 4.77637H23.0456C23.8744 4.77637 24.6693 5.10561 25.2553 5.69166C25.8414 6.27771 26.1706 7.07257 26.1706 7.90137V23.9939C26.1706 24.8227 25.8414 25.6175 25.2553 26.2036C24.6693 26.7896 23.8744 27.1189 23.0456 27.1189ZM6.95313 6.02637C6.45584 6.02637 5.97893 6.22391 5.6273 6.57554C5.27567 6.92717 5.07813 7.40409 5.07813 7.90137V23.9939C5.07813 24.4911 5.27567 24.9681 5.6273 25.3197C5.97893 25.6713 6.45584 25.8689 6.95313 25.8689H23.0456C23.5429 25.8689 24.0198 25.6713 24.3715 25.3197C24.7231 24.9681 24.9206 24.4911 24.9206 23.9939V7.90137C24.9206 7.40409 24.7231 6.92717 24.3715 6.57554C24.0198 6.22391 23.5429 6.02637 23.0456 6.02637H6.95313Z" fill="black"/>
<path d="M14.9992 21.6901C13.8634 21.6889 12.7535 21.351 11.8097 20.719C10.866 20.0871 10.1308 19.1895 9.69703 18.1398C9.26329 17.0901 9.15051 15.9354 9.37294 14.8216C9.59537 13.7078 10.143 12.6849 10.9467 11.8823C11.7503 11.0797 12.7739 10.5334 13.888 10.3124C15.0021 10.0914 16.1567 10.2057 17.2058 10.6408C18.255 11.0759 19.1516 11.8123 19.7823 12.7569C20.413 13.7015 20.7495 14.8118 20.7492 15.9476C20.7472 17.4713 20.1406 18.9319 19.0624 20.0087C17.9843 21.0854 16.5229 21.6901 14.9992 21.6901ZM14.9992 11.4476C14.111 11.4489 13.243 11.7133 12.505 12.2076C11.7669 12.7018 11.1919 13.4037 10.8526 14.2246C10.5132 15.0455 10.4248 15.9485 10.5984 16.8196C10.772 17.6907 11.1998 18.4909 11.8279 19.1189C12.456 19.747 13.2561 20.1749 14.1273 20.3485C14.9984 20.5221 15.9014 20.4336 16.7223 20.0943C17.5431 19.7549 18.245 19.1799 18.7393 18.4419C19.2335 17.7038 19.498 16.8359 19.4992 15.9476C19.4992 14.7542 19.0251 13.6096 18.1812 12.7657C17.3373 11.9217 16.1927 11.4476 14.9992 11.4476Z" fill="black"/>
<path d="M21.5 10.8289C22.2421 10.8289 22.8437 10.2272 22.8437 9.48511C22.8437 8.74297 22.2421 8.14136 21.5 8.14136C20.7579 8.14136 20.1562 8.74297 20.1562 9.48511C20.1562 10.2272 20.7579 10.8289 21.5 10.8289Z" fill="black"/>
</g>
<defs>
<clipPath id="clip0_590_346">
<rect width="30" height="30" fill="white" transform="translate(0 0.947632)"/>
</clipPath>
</defs>
</svg>
