<svg width="31" height="31" viewBox="0 0 31 31" fill="none" xmlns="http://www.w3.org/2000/svg">
<g clip-path="url(#clip0_590_354)">
<path d="M26.5938 9.85388C24.9782 9.85202 23.4293 9.2094 22.2869 8.06701C21.1445 6.92461 20.5019 5.37572 20.5 3.76013C20.5 3.63581 20.4506 3.51658 20.3627 3.42868C20.2748 3.34077 20.1556 3.29138 20.0312 3.29138H15.3438C15.2194 3.29138 15.1002 3.34077 15.0123 3.42868C14.9244 3.51658 14.875 3.63581 14.875 3.76013V19.2289C14.8749 19.7322 14.7398 20.2263 14.4837 20.6596C14.2276 21.0929 13.8599 21.4496 13.4189 21.6923C12.978 21.9351 12.48 22.055 11.9769 22.0397C11.4738 22.0244 10.984 21.8743 10.5587 21.6052C10.1333 21.3361 9.78802 20.9577 9.55874 20.5097C9.32946 20.0616 9.22463 19.5602 9.25519 19.0578C9.28574 18.5554 9.45057 18.0704 9.73246 17.6534C10.0144 17.2364 10.403 16.9027 10.8578 16.6871C10.9379 16.6489 11.0056 16.5888 11.0529 16.5137C11.1002 16.4386 11.1252 16.3516 11.125 16.2629V11.2601C11.125 11.1916 11.11 11.1239 11.0811 11.0618C11.0521 10.9997 11.0099 10.9447 10.9574 10.9007C10.9049 10.8567 10.8434 10.8247 10.7772 10.807C10.711 10.7894 10.6417 10.7864 10.5742 10.7984C6.61211 11.5039 3.625 15.1273 3.625 19.2289C3.625 21.4666 4.51395 23.6128 6.09629 25.1951C7.67862 26.7774 9.82474 27.6664 12.0625 27.6664C14.3003 27.6664 16.4464 26.7774 18.0287 25.1951C19.6111 23.6128 20.5 21.4666 20.5 19.2289V13.7726C22.3345 14.8936 24.4439 15.4842 26.5938 15.4789C26.7181 15.4789 26.8373 15.4295 26.9252 15.3416C27.0131 15.2537 27.0625 15.1345 27.0625 15.0101V10.3226C27.0625 10.1983 27.0131 10.0791 26.9252 9.99118C26.8373 9.90327 26.7181 9.85388 26.5938 9.85388ZM26.125 14.532C24.0298 14.4456 22.0062 13.7455 20.3055 12.5187C20.2353 12.4681 20.1526 12.4379 20.0664 12.4315C19.9801 12.425 19.8938 12.4425 19.8169 12.482C19.74 12.5216 19.6755 12.5816 19.6306 12.6555C19.5857 12.7294 19.5622 12.8143 19.5625 12.9008V19.2289C19.5625 21.218 18.7723 23.1257 17.3658 24.5322C15.9593 25.9387 14.0516 26.7289 12.0625 26.7289C10.0734 26.7289 8.16572 25.9387 6.7592 24.5322C5.35268 23.1257 4.5625 21.218 4.5625 19.2289C4.5625 15.7695 6.94375 12.691 10.1875 11.8461V15.984C9.61733 16.3131 9.14388 16.7866 8.81474 17.3568C8.4856 17.927 8.31238 18.5738 8.3125 19.2322C8.31262 19.8906 8.48607 20.5373 8.81541 21.1074C9.14475 21.6775 9.61837 22.1508 10.1887 22.4798C10.7589 22.8088 11.4058 22.9818 12.0642 22.9816C12.7225 22.9813 13.3692 22.8076 13.9392 22.4781C14.5092 22.1487 14.9824 21.6749 15.3113 21.1045C15.6401 20.5342 15.813 19.8873 15.8125 19.2289V4.22888H19.5777C19.6938 5.92706 20.4209 7.52577 21.6245 8.72937C22.8281 9.93297 24.4268 10.66 26.125 10.7761V14.532Z" fill="black"/>
</g>
<defs>
<clipPath id="clip0_590_354">
<rect width="30" height="30" fill="white" transform="translate(0.34375 0.947632)"/>
</clipPath>
</defs>
</svg>
