<svg width="43" height="40" viewBox="0 0 43 40" fill="none" xmlns="http://www.w3.org/2000/svg">
<path d="M31.0613 11.5968C31.2971 11.5988 31.5279 11.6652 31.7286 11.7889C31.9293 11.9126 32.0924 12.0889 32.2002 12.2986C32.3079 12.5083 32.3563 12.7435 32.34 12.9787C32.3236 13.214 32.2433 13.4402 32.1076 13.6331L30.8051 15.4843C30.7251 21.8418 28.5988 26.1581 24.4851 28.3143C22.5248 29.2885 20.3588 29.7769 18.1701 29.7381C15.4637 29.8003 12.7893 29.1429 10.4201 27.8331C10.2607 27.726 10.1375 27.5731 10.0668 27.3946C9.99607 27.216 9.98109 27.0203 10.0238 26.8331C10.0639 26.6431 10.1606 26.4697 10.3012 26.3358C10.4418 26.2019 10.6196 26.1138 10.8113 26.0831C12.4029 25.8608 13.9702 25.49 15.4926 24.9756C8.6701 21.8193 10.1576 14.7243 10.8076 12.5456C10.871 12.3293 10.9901 12.1334 11.1531 11.9777C11.3161 11.822 11.5171 11.7119 11.7361 11.6585C11.9551 11.605 12.1842 11.6101 12.4006 11.6732C12.617 11.7364 12.813 11.8553 12.9688 12.0181C14.9659 14.0759 17.6138 15.3788 20.4626 15.7056C20.412 14.94 20.5304 14.1727 20.8093 13.4579C21.0881 12.7431 21.5207 12.0984 22.0763 11.5693C23.039 10.6558 24.3168 10.1486 25.6439 10.1532C26.971 10.1579 28.2452 10.674 29.2013 11.5943L31.0613 11.5968ZM11.8213 27.1868C14.1488 28.2768 19.6038 29.4606 23.9051 27.2068C27.5988 25.2706 29.5001 21.2918 29.5563 15.3806C29.5589 15.1851 29.6208 14.995 29.7338 14.8356L31.0851 12.9131L31.0338 12.8468C30.3863 12.8381 29.7476 12.8293 29.0963 12.8468C28.8424 12.841 28.5993 12.7428 28.4126 12.5706C27.693 11.8412 26.7161 11.4232 25.6916 11.4063C24.6672 11.3895 23.677 11.7752 22.9338 12.4806C22.4565 12.9345 22.0998 13.5002 21.8957 14.1265C21.6917 14.7528 21.6468 15.4201 21.7651 16.0681C21.7869 16.1888 21.7808 16.3129 21.7475 16.4309C21.7141 16.549 21.6543 16.6578 21.5726 16.7493C21.4943 16.8416 21.3945 16.9132 21.2821 16.9579C21.1696 17.0026 21.0479 17.019 20.9276 17.0056C17.5691 16.7712 14.4156 15.3044 12.0726 12.8868C11.2351 15.4843 10.1726 21.7543 16.9088 24.2181C17.0506 24.2689 17.1749 24.3593 17.267 24.4784C17.3591 24.5976 17.4153 24.7406 17.4288 24.8906C17.4441 25.0383 17.4169 25.1873 17.3505 25.3201C17.2841 25.453 17.1812 25.5641 17.0538 25.6406C15.4078 26.4433 13.6393 26.9659 11.8213 27.1868Z" fill="black"/>
</svg>
