<svg width="31" height="31" viewBox="0 0 31 31" fill="none" xmlns="http://www.w3.org/2000/svg">
<g clip-path="url(#clip0_590_352)">
<path d="M18.8337 14.4164L14.2487 11.7764C13.9795 11.6214 13.6743 11.5399 13.3637 11.5402C13.0531 11.5404 12.748 11.6223 12.479 11.7777C12.21 11.9331 11.9866 12.1564 11.8313 12.4254C11.6759 12.6944 11.594 12.9995 11.5938 13.3101V18.5876C11.59 19.2201 11.9275 19.8051 12.4763 20.1176C12.7453 20.2748 13.0512 20.3578 13.3628 20.3583C13.6744 20.3587 13.9805 20.2765 14.25 20.1201L18.8337 17.4801C19.103 17.3253 19.3267 17.1023 19.4823 16.8334C19.6378 16.5646 19.7197 16.2595 19.7197 15.9489C19.7197 15.6383 19.6378 15.3332 19.4823 15.0643C19.3267 14.7955 19.103 14.5724 18.8337 14.4176V14.4164ZM18.2087 16.3939L13.6263 19.0351C13.5468 19.0817 13.4564 19.1063 13.3644 19.1063C13.2723 19.1063 13.1819 19.0817 13.1025 19.0351C13.023 18.9902 12.9571 18.9247 12.9116 18.8455C12.8661 18.7664 12.8426 18.6764 12.8438 18.5851V13.3101C12.8429 13.219 12.8664 13.1294 12.9119 13.0505C12.9574 12.9715 13.0232 12.9063 13.1025 12.8614C13.1812 12.8135 13.2716 12.7881 13.3638 12.7881C13.4559 12.7881 13.5463 12.8135 13.625 12.8614L18.2087 15.5026C18.2878 15.5473 18.3536 15.6121 18.3993 15.6905C18.4451 15.7689 18.4692 15.8581 18.4692 15.9489C18.4692 16.0397 18.4451 16.1288 18.3993 16.2072C18.3536 16.2856 18.2878 16.3492 18.2087 16.3939ZM24.0938 5.94763H6.59375C5.59949 5.94862 4.64624 6.34403 3.9432 7.04708C3.24015 7.75012 2.84474 8.70337 2.84375 9.69763V22.1976C2.84474 23.1919 3.24015 24.1451 3.9432 24.8482C4.64624 25.5512 5.59949 25.9466 6.59375 25.9476H24.0938C25.088 25.9466 26.0413 25.5512 26.7443 24.8482C27.4473 24.1451 27.8428 23.1919 27.8438 22.1976V9.69763C27.8428 8.70337 27.4473 7.75012 26.7443 7.04708C26.0413 6.34403 25.088 5.94862 24.0938 5.94763ZM26.5938 22.1976C26.5928 22.8604 26.329 23.4957 25.8604 23.9643C25.3918 24.4329 24.7565 24.6966 24.0938 24.6976H6.59375C5.93101 24.6966 5.2957 24.4329 4.82708 23.9643C4.35845 23.4957 4.09474 22.8604 4.09375 22.1976V9.69763C4.09474 9.0349 4.35845 8.39959 4.82708 7.93096C5.2957 7.46233 5.93101 7.19862 6.59375 7.19763H24.0938C24.7565 7.19862 25.3918 7.46233 25.8604 7.93096C26.329 8.39959 26.5928 9.0349 26.5938 9.69763V22.1976Z" fill="black"/>
</g>
<defs>
<clipPath id="clip0_590_352">
<rect width="30" height="30" fill="white" transform="translate(0.34375 0.947632)"/>
</clipPath>
</defs>
</svg>
