<svg width="50" height="50" viewBox="0 0 50 50" fill="none" xmlns="http://www.w3.org/2000/svg">
<path d="M44.6816 29.3853L37.5003 25.7957V24.9998C37.5003 24.6404 37.4072 24.287 37.2301 23.9741C37.0531 23.6613 36.7981 23.3996 36.4899 23.2144L27.0837 17.5707V12.4998H31.2503V8.33317H27.0837V4.1665H22.917V8.33317H18.7503V12.4998H22.917V17.5707L13.5107 23.2144C13.2026 23.3996 12.9476 23.6613 12.7705 23.9741C12.5935 24.287 12.5004 24.6404 12.5003 24.9998V25.7957L5.31908 29.3873C4.97277 29.5599 4.68147 29.8256 4.47794 30.1546C4.27441 30.4836 4.16672 30.8629 4.16699 31.2498V43.7498C4.16699 44.3024 4.38649 44.8323 4.77719 45.223C5.16789 45.6137 5.69779 45.8332 6.25033 45.8332H43.7503C44.3029 45.8332 44.8328 45.6137 45.2235 45.223C45.6142 44.8323 45.8337 44.3024 45.8337 43.7498V31.2498C45.8337 30.4603 45.3878 29.7394 44.6816 29.3853ZM8.33366 32.5373L12.5003 30.454V41.6665H8.33366V32.5373ZM25.0003 31.2498C23.8953 31.2498 22.8355 31.6888 22.054 32.4702C21.2726 33.2516 20.8337 34.3114 20.8337 35.4165V41.6665H16.667V26.179L25.0003 21.179L33.3337 26.179V41.6665H29.167V35.4165C29.167 34.3114 28.728 33.2516 27.9466 32.4702C27.1652 31.6888 26.1054 31.2498 25.0003 31.2498ZM41.667 41.6665H37.5003V30.454L41.667 32.5373V41.6665Z" fill="#02006C"/>
</svg>
